<mxfile host="app.diagrams.net" agent="Mozilla/5.0 (Windows NT 10.0; Win64; x64) AppleWebKit/537.36 (KHTML, like Gecko) Chrome/140.0.0.0 Safari/537.36" version="28.2.3">
  <diagram name="Page-1" id="yErN5v8po-oCLoNZsI77">
    <mxGraphModel dx="1426" dy="777" grid="1" gridSize="10" guides="1" tooltips="1" connect="1" arrows="1" fold="1" page="1" pageScale="1" pageWidth="827" pageHeight="1169" math="0" shadow="0">
      <root>
        <mxCell id="0" />
        <mxCell id="1" parent="0" />
        <mxCell id="i_ZI4BL8TgBDiFZIhyjH-7" value="" style="edgeStyle=orthogonalEdgeStyle;rounded=0;orthogonalLoop=1;jettySize=auto;html=1;entryX=0.5;entryY=0;entryDx=0;entryDy=0;" edge="1" parent="1" source="i_ZI4BL8TgBDiFZIhyjH-1" target="i_ZI4BL8TgBDiFZIhyjH-5">
          <mxGeometry relative="1" as="geometry">
            <mxPoint x="390" y="190" as="targetPoint" />
          </mxGeometry>
        </mxCell>
        <mxCell id="i_ZI4BL8TgBDiFZIhyjH-1" value="Start" style="ellipse;whiteSpace=wrap;html=1;" vertex="1" parent="1">
          <mxGeometry x="330" y="80" width="120" height="80" as="geometry" />
        </mxCell>
        <mxCell id="i_ZI4BL8TgBDiFZIhyjH-2" value="End" style="ellipse;whiteSpace=wrap;html=1;" vertex="1" parent="1">
          <mxGeometry x="330" y="920" width="120" height="80" as="geometry" />
        </mxCell>
        <mxCell id="i_ZI4BL8TgBDiFZIhyjH-13" value="" style="edgeStyle=orthogonalEdgeStyle;rounded=0;orthogonalLoop=1;jettySize=auto;html=1;" edge="1" parent="1" source="i_ZI4BL8TgBDiFZIhyjH-3" target="i_ZI4BL8TgBDiFZIhyjH-11">
          <mxGeometry relative="1" as="geometry" />
        </mxCell>
        <mxCell id="i_ZI4BL8TgBDiFZIhyjH-3" value="แสดง Array(i) เท่ากับ N ที่ป้อน" style="rounded=0;whiteSpace=wrap;html=1;" vertex="1" parent="1">
          <mxGeometry x="330" y="280" width="120" height="70" as="geometry" />
        </mxCell>
        <mxCell id="i_ZI4BL8TgBDiFZIhyjH-10" value="" style="edgeStyle=orthogonalEdgeStyle;rounded=0;orthogonalLoop=1;jettySize=auto;html=1;" edge="1" parent="1" source="i_ZI4BL8TgBDiFZIhyjH-5" target="i_ZI4BL8TgBDiFZIhyjH-3">
          <mxGeometry relative="1" as="geometry" />
        </mxCell>
        <mxCell id="i_ZI4BL8TgBDiFZIhyjH-5" value="ป้อนตัวเลข(N)&amp;nbsp;" style="shape=parallelogram;perimeter=parallelogramPerimeter;whiteSpace=wrap;html=1;fixedSize=1;" vertex="1" parent="1">
          <mxGeometry x="330" y="200" width="120" height="60" as="geometry" />
        </mxCell>
        <mxCell id="i_ZI4BL8TgBDiFZIhyjH-19" style="edgeStyle=orthogonalEdgeStyle;rounded=0;orthogonalLoop=1;jettySize=auto;html=1;entryX=1;entryY=0.5;entryDx=0;entryDy=0;" edge="1" parent="1" source="i_ZI4BL8TgBDiFZIhyjH-6" target="i_ZI4BL8TgBDiFZIhyjH-16">
          <mxGeometry relative="1" as="geometry">
            <Array as="points">
              <mxPoint x="470" y="755" />
              <mxPoint x="470" y="665" />
            </Array>
          </mxGeometry>
        </mxCell>
        <mxCell id="i_ZI4BL8TgBDiFZIhyjH-28" value="" style="edgeStyle=orthogonalEdgeStyle;rounded=0;orthogonalLoop=1;jettySize=auto;html=1;" edge="1" parent="1" source="i_ZI4BL8TgBDiFZIhyjH-6" target="i_ZI4BL8TgBDiFZIhyjH-22">
          <mxGeometry relative="1" as="geometry" />
        </mxCell>
        <mxCell id="i_ZI4BL8TgBDiFZIhyjH-6" value="ตรวจว่า N เป็นจำนวนเเฉพาะหรือไม่" style="rhombus;whiteSpace=wrap;html=1;" vertex="1" parent="1">
          <mxGeometry x="330" y="700" width="120" height="110" as="geometry" />
        </mxCell>
        <mxCell id="i_ZI4BL8TgBDiFZIhyjH-12" value="" style="edgeStyle=orthogonalEdgeStyle;rounded=0;orthogonalLoop=1;jettySize=auto;html=1;" edge="1" parent="1" source="i_ZI4BL8TgBDiFZIhyjH-16" target="i_ZI4BL8TgBDiFZIhyjH-6">
          <mxGeometry relative="1" as="geometry" />
        </mxCell>
        <mxCell id="i_ZI4BL8TgBDiFZIhyjH-26" value="" style="edgeStyle=orthogonalEdgeStyle;rounded=0;orthogonalLoop=1;jettySize=auto;html=1;" edge="1" parent="1" source="i_ZI4BL8TgBDiFZIhyjH-11" target="i_ZI4BL8TgBDiFZIhyjH-14">
          <mxGeometry relative="1" as="geometry" />
        </mxCell>
        <mxCell id="i_ZI4BL8TgBDiFZIhyjH-11" value="ป้อนตัวที่ละตัวตามจำนวน Array" style="shape=parallelogram;perimeter=parallelogramPerimeter;whiteSpace=wrap;html=1;fixedSize=1;" vertex="1" parent="1">
          <mxGeometry x="330" y="380" width="120" height="60" as="geometry" />
        </mxCell>
        <mxCell id="i_ZI4BL8TgBDiFZIhyjH-21" value="" style="edgeStyle=orthogonalEdgeStyle;rounded=0;orthogonalLoop=1;jettySize=auto;html=1;" edge="1" parent="1" source="i_ZI4BL8TgBDiFZIhyjH-14" target="i_ZI4BL8TgBDiFZIhyjH-15">
          <mxGeometry relative="1" as="geometry" />
        </mxCell>
        <mxCell id="i_ZI4BL8TgBDiFZIhyjH-14" value="แสดงผล index = i" style="rounded=0;whiteSpace=wrap;html=1;" vertex="1" parent="1">
          <mxGeometry x="330" y="470" width="120" height="60" as="geometry" />
        </mxCell>
        <mxCell id="i_ZI4BL8TgBDiFZIhyjH-27" value="" style="edgeStyle=orthogonalEdgeStyle;rounded=0;orthogonalLoop=1;jettySize=auto;html=1;" edge="1" parent="1" source="i_ZI4BL8TgBDiFZIhyjH-15" target="i_ZI4BL8TgBDiFZIhyjH-16">
          <mxGeometry relative="1" as="geometry" />
        </mxCell>
        <mxCell id="i_ZI4BL8TgBDiFZIhyjH-15" value="แสดงผล Array พร้อมตรวจสอบจำนวนเฉพาะ" style="rounded=0;whiteSpace=wrap;html=1;" vertex="1" parent="1">
          <mxGeometry x="330" y="570" width="120" height="60" as="geometry" />
        </mxCell>
        <mxCell id="i_ZI4BL8TgBDiFZIhyjH-16" value="" style="ellipse;whiteSpace=wrap;html=1;aspect=fixed;" vertex="1" parent="1">
          <mxGeometry x="375" y="650" width="30" height="30" as="geometry" />
        </mxCell>
        <mxCell id="i_ZI4BL8TgBDiFZIhyjH-25" value="" style="edgeStyle=orthogonalEdgeStyle;rounded=0;orthogonalLoop=1;jettySize=auto;html=1;" edge="1" parent="1" source="i_ZI4BL8TgBDiFZIhyjH-22" target="i_ZI4BL8TgBDiFZIhyjH-2">
          <mxGeometry relative="1" as="geometry" />
        </mxCell>
        <mxCell id="i_ZI4BL8TgBDiFZIhyjH-22" value="ถ้าเป็นจำนวนเฉพาะแสดงตัวเลข&lt;div&gt;ถ้าไม่เป็นจำนวนเฉพาะแสดง #&lt;/div&gt;" style="rounded=0;whiteSpace=wrap;html=1;" vertex="1" parent="1">
          <mxGeometry x="325" y="830" width="130" height="60" as="geometry" />
        </mxCell>
      </root>
    </mxGraphModel>
  </diagram>
</mxfile>
